<?xml version="1.0" encoding="utf-8"?>
<!-- Generator: Adobe Illustrator 25.0.1, SVG Export Plug-In . SVG Version: 6.00 Build 0)  -->
<svg version="1.1" id="Layer_1" xmlns="http://www.w3.org/2000/svg" xmlns:xlink="http://www.w3.org/1999/xlink" x="0px" y="0px"
	 viewBox="0 0 200 200" style="enable-background:new 0 0 200 200;" xml:space="preserve">
<style type="text/css">
	.st0{fill:#3E4988;}
</style>
<path class="st0" d="M24.5,100c0-26.9,0-53.8,0-80.8c0-7,2.7-12.6,9.2-15.7c2.4-1.2,5.3-1.8,8-1.8c28-0.1,56-0.1,84-0.1
	c2.1,0,3.6,0.7,5.1,2.2c13,13.1,26.1,26.1,39.1,39.1c1.4,1.4,2.1,3,2.1,5.1c0,44.4,0,88.8,0,133.2c0,10.2-7,17.2-17.1,17.2
	c-37.7,0-75.5,0-113.2,0c-10.2,0-17.1-7-17.1-17.4C24.5,154,24.5,127,24.5,100z M122.9,9.9c-1,0-1.7,0-2.4,0c-26,0-51.9,0-77.9,0
	c-6.7,0-9.8,3.1-9.8,9.8c0,53.6,0,107.1,0,160.7c0,6.7,3,9.8,9.8,9.8c37.2,0,74.3,0,111.5,0c6.8,0,9.8-3,9.8-9.8
	c0-42.4,0-84.7,0-127.1c0-0.8-0.1-1.5-0.1-2.5c-1,0-1.8,0-2.6,0c-7,0-13.9,0.2-20.8-0.1c-2.7-0.1-5.6-0.6-8.1-1.7
	c-6.4-3-9.3-8.4-9.3-15.4C122.8,25.9,122.9,18.1,122.9,9.9z M131.1,16.5c0,6-0.1,12.1,0,18.1c0.1,4.8,3.5,7.9,8.3,8
	c5.5,0.1,11.1,0,16.6,0c0.4,0,0.8-0.1,1.1-0.1C148.5,33.8,139.9,25.2,131.1,16.5z"/>
<path class="st0" d="M90.4,132.3c1.6-4.2,3.1-8.5,4.7-12.7c1.8-5,1.8-5,7.1-5c1.4,0,2.8,0,4.1,0c5.8,0,5.2-0.4,7.8,4.9
	c0.4-1.3,0.7-2.3,0.9-3.3c1.6-6.1,3.2-12.3,4.7-18.4c0.5-1.9,1.2-3.5,3.4-3.5c2.1,0,2.9,1.5,3.4,3.2c1.6,5,3.3,9.9,4.8,14.8
	c0.5,1.8,1.4,2.4,3.3,2.3c2.8-0.2,5.7-0.1,8.5,0c2.4,0,3.8,1.3,3.8,3.2c0,2-1.3,3.2-3.8,3.2c-4.2,0.1-8.5,0-12.7,0
	c-2.2,0-3.4-1-4-3.1c-0.8-2.7-1.8-5.4-3.2-8c-1.1,4.2-2.2,8.4-3.3,12.6c-0.7,2.8-1.4,5.5-2.1,8.3c-0.4,1.7-1.4,3.3-3.2,3
	c-1.2-0.2-2.6-1.5-3.2-2.7c-1.3-2.6-2.2-5.4-3.1-8.2c-0.4-1.3-1.1-1.9-2.6-1.9c-5.3,0.2-4-0.9-5.9,4.1c-2.4,6.2-4.6,12.5-6.9,18.8
	c-0.6,1.7-1.5,3.2-3.5,3.1c-2-0.1-2.8-1.6-3.3-3.4c-3.2-12.3-6.4-24.7-9.7-37c-0.2-0.6-0.4-1.2-0.8-2.5c-1,3-1.8,5.4-2.5,7.8
	c-0.7,2.2-1.3,4.4-2,6.5c-0.5,1.8-1.7,2.7-3.6,2.7c-4.8,0-9.6,0.1-14.4,0c-2.4,0-3.8-1.3-3.7-3.3c0.1-1.9,1.4-3.1,3.9-3.1
	c3.4-0.1,6.8-0.1,10.2,0c1.5,0,2.1-0.5,2.5-1.9c2-6.8,4.1-13.5,6.1-20.3c0.6-1.9,1.2-3.9,3.7-3.8c2.4,0.1,2.9,2,3.4,3.8
	c3.4,13.2,6.9,26.4,10.4,39.6C90,132.2,90.2,132.2,90.4,132.3z"/>
</svg>
