<?xml version="1.0" encoding="utf-8"?>
<!-- Generator: Adobe Illustrator 25.0.1, SVG Export Plug-In . SVG Version: 6.00 Build 0)  -->
<svg version="1.1" id="Layer_1" xmlns="http://www.w3.org/2000/svg" xmlns:xlink="http://www.w3.org/1999/xlink" x="0px" y="0px"
	 viewBox="0 0 200 200" style="enable-background:new 0 0 200 200;" xml:space="preserve">
<style type="text/css">
	.st0{fill:#3E4988;}
</style>
<g>
	<g>
		<g>
			<path class="st0" d="M99.5,187.6c-13.5-0.1-26.2-3-37.7-8.8C42,169,27.5,153.7,19,133.3C11.9,116.4,10.5,97,15,78.7
				S30,44,44.2,32.5c16.3-13.3,34.7-20.1,54.5-20.1c1.9,0,3.8,0.1,5.7,0.2c32.4,2.1,57,17.8,73,46.6c6.6,11.9,9.9,25.4,10.1,40.2
				c0,2-0.7,3.3-2.3,4c-0.5,0.3-1.1,0.4-1.7,0.4c-1,0-1.8-0.4-2.3-0.9c-0.8-1.2-1.4-2.8-1.4-4.2c-0.3-10.4-2.2-19.5-5.7-27.9
				c-10.8-25.9-29.7-42.2-56.6-48.5c-5.9-1.4-12-2.1-18.1-2.1c-38.3,0-71.1,27.5-78.1,65.2c-0.6,3.3-0.9,6.6-1.3,9.9
				c-0.2,1.5-0.3,3-0.5,4.5v0.1v0.1c0.3,38.6,27.9,71.6,65.8,78.6c3.5,0.6,7.1,0.9,10.6,1.1c1.2,0.1,2.3,0.2,3.5,0.3
				c2.6,0.2,3.9,1.4,4.2,3.4c0.2,1.3-0.1,2.3-0.8,3.1C102.2,187.1,101,187.6,99.5,187.6L99.5,187.6z"/>
		</g>
		<g>
			<path class="st0" d="M145.7,187.6c-11.2,0-21.8-4.4-29.7-12.3c-7.9-7.9-12.3-18.4-12.3-29.7c0-23.1,18.9-41.9,42-41.9
				s41.9,18.8,41.9,41.9c0,11.2-4.4,21.8-12.2,29.7C167.4,183.2,156.9,187.6,145.7,187.6L145.7,187.6z M145.7,111.5
				c-18.8,0-34,15.2-34.1,34c0,9.1,3.5,17.7,9.9,24.2c6.5,6.5,15.1,10,24.2,10.1h0.1c18.8,0,34.1-15.2,34.1-34
				c0.1-18.8-15.2-34.2-34-34.3H145.7z"/>
		</g>
		<g>
			<path class="st0" d="M79.3,111.5c-5.6,0-11,0-16.6,0c-1.6,0-3-0.5-3.8-1.6c-0.6-0.8-0.9-1.9-0.6-3.1c0.2-0.7,0.7-3,4.6-3
				c4.4,0,8.7,0,13,0h20.3V90c0-16.2,0-32.6,0-48.8v-0.3c0-0.9,0-1.8,0.1-2.6c0.3-1.7,1.8-3,3.7-3c1.9,0,3.4,1.2,3.7,3
				c0.2,0.8,0.2,1.6,0.2,2.6c0,21.6,0,43.3,0,65c0,4.7-1,5.7-5.7,5.7L79.3,111.5z"/>
		</g>
		<g>
			<path class="st0" d="M141.9,165.7c-1,0-2.2-0.5-3.7-1.6c-4.8-3.6-10.5-7.8-16.2-12.2c-1.1-0.8-2.3-2.3-1.6-4.4
				c0.5-1.5,1.7-2.6,3-2.6c0.1,0,0.1,0,0.2,0c1.2,0.1,2.6,0.6,3.7,1.3c2.7,1.9,5.6,4,8.2,6c1.2,0.9,2.3,1.7,3.5,2.6
				c0.5,0.4,0.9,0.4,1.2,0.5c0.1,0,0.1,0,0.2,0l1.1,0.2l1.3-1.6c0.5-0.5,1-1.2,1.5-1.8c1.7-2.4,3.6-4.7,5.3-7
				c3.5-4.6,6.9-9.1,10.4-13.7c1-1.4,2.3-2.1,3.6-2.1c0.7,0,1.6,0.3,2.2,0.8c1.9,1.5,2,3.8,0.3,6.1c-6.8,8.9-13.5,17.9-20.3,26.8
				C143.8,165.3,142.6,165.7,141.9,165.7z"/>
		</g>
	</g>
</g>
</svg>
