<?xml version="1.0" encoding="utf-8"?>
<!-- Generator: Adobe Illustrator 25.0.1, SVG Export Plug-In . SVG Version: 6.00 Build 0)  -->
<svg version="1.1" id="Layer_1" xmlns="http://www.w3.org/2000/svg" xmlns:xlink="http://www.w3.org/1999/xlink" x="0px" y="0px"
	 viewBox="0 0 200 200" style="enable-background:new 0 0 200 200;" xml:space="preserve">
<style type="text/css">
	.st0{fill:#3E4988;}
</style>
<g>
	<path class="st0" d="M101.5,188.2c-3.5,0-7.1-1.6-10.2-4.5l-1.1-1.1c-2.8-2.7-5.6-5.4-8.4-8.2c-1.8-1.8-4-2.8-6.4-2.8
		c-0.6,0-1.1,0-1.7,0.1l-1.1,0.1c-4.2,0.7-8.6,1.3-13,1.8c-0.7,0.1-1.3,0.1-1.9,0.1c-7,0-11.9-4.1-13.4-11.2
		c-1-4.3-1.7-8.9-2.3-13.3v-0.3c-0.6-3.4-2.3-6-5.5-7.5c-4.3-2.1-8.7-4.4-13-7c-6.3-4-8.3-11.1-4.9-17.9l1-2c1.7-3.4,3.4-7,5.2-10.5
		c1.3-2.8,1.4-5.4,0-8.2c-1-2.1-2.1-4.2-3.1-6.3c-0.9-1.9-1.9-3.8-2.8-5.6c-4-7.9-1.6-15.3,6.1-19.5l1.4-0.8
		c3.3-1.8,6.6-3.7,10.1-5.3c3.1-1.6,4.9-3.9,5.4-7.4l0.1-0.8c0.7-4,1.3-8.2,2.1-12.2c1.6-7.6,6.4-11.9,13.7-11.9c1,0,2,0.1,3,0.2
		c1.6,0.2,3.2,0.4,4.8,0.7c2.8,0.3,5.4,0.8,8.2,1.2c0.6,0.1,1.1,0.1,1.6,0.1c2.4,0,4.5-0.9,6.3-2.8c2.5-2.5,5.2-5.2,7.9-7.6l1.7-1.6
		c3.1-3,6.6-4.5,10.2-4.5s7.1,1.6,10.3,4.5l2.3,2.2c2.3,2.2,4.8,4.5,7.1,6.9c1.9,1.9,4,2.9,6.5,2.9c0.6,0,1.1,0,1.8-0.1l2.4-0.3
		c3.9-0.6,8-1.2,12-1.6c0.6,0,1-0.1,1.6-0.1c7,0,11.7,4,13.3,11.1c1.1,4.8,1.8,9.6,2.3,13.3c0.6,3.8,2.4,6.3,5.9,8
		c4.9,2.4,8.9,4.5,12.7,6.9c6.3,4,8.2,11,4.9,17.8c-1.8,3.7-3.9,8-6.1,12.4c-1.4,2.8-1.4,5.5-0.1,8.2c1,2.1,2,4.1,3.1,6.2
		c0.9,1.9,1.9,3.9,2.8,5.8c4,8,1.7,15.5-6.2,19.6l-2.2,1.2c-3,1.7-6.2,3.3-9.3,4.9c-3,1.4-4.7,3.8-5.3,7.2c-0.2,1.1-0.4,2.3-0.6,3.4
		c-0.7,3.9-1.3,8-2.3,11.9c-1.6,6-6.6,9.6-13.8,9.6c-0.4,0-0.8,0-1.2,0c-0.9-0.1-2-0.2-3.1-0.4c-3-0.4-6.8-0.9-10.4-1.4
		c-0.7-0.1-1.3-0.1-1.9-0.1c-2.7,0-5,1-7,3.1c-2.4,2.5-5,5-7.5,7.3l-1.7,1.7C108.6,186.6,105,188.2,101.5,188.2z M75.7,165.6
		c3.8,0,7.1,1.3,10,4.2l2.5,2.4c2.5,2.4,5.1,4.9,7.6,7.3c1.8,1.8,3.8,2.7,5.6,2.7c2,0,3.9-0.9,5.8-2.7c2.5-2.4,5-4.8,7.5-7.2
		l2.9-2.8c2.8-2.8,6-4.1,9.6-4.1c0.8,0,1.6,0.1,2.3,0.2c0,0,10.5,1.6,14.2,2c0.6,0.1,1,0.1,1.6,0.1c4.1,0,6.9-2.5,7.6-6.6l0.6-2.9
		c0.7-3.5,1.3-7.2,1.9-10.9c0.8-5,3.3-8.5,7.8-10.9c4.8-2.4,8.6-4.5,12.3-6.5c4.5-2.5,5.8-6.3,3.5-11c-2-4.3-3.9-8.2-5.9-12
		c-2.4-4.8-2.4-9.4,0-14.2c1.9-3.5,3.5-7.2,5.2-10.6l0.4-1c2.4-5.2,1.3-8.7-3.8-11.5c-3.7-2-7.5-4.1-12-6.3
		c-4.3-2.3-6.9-5.8-7.6-10.6c-0.7-4.1-1.4-8.2-2.1-12.2l-0.3-1.8c-0.8-4.2-3.7-6.6-7.6-6.6c-0.4,0-1,0-1.6,0.1
		c-4.8,0.7-9.4,1.3-14.2,2c-0.8,0.1-1.6,0.2-2.3,0.2c-3.7,0-6.9-1.3-9.6-4.1l-2.1-2c-2.8-2.7-5.4-5.3-8.2-8
		c-1.8-1.8-3.8-2.7-5.6-2.7c-2,0-3.9,0.9-5.6,2.7c-3.2,3.1-6.6,6.4-10.1,9.7c-2.9,2.9-6.2,4.3-10.1,4.3c-0.9,0-1.8-0.1-2.7-0.2
		c-3.4-0.6-6.8-1-10.2-1.4c-1.6-0.2-4.8-0.7-4.8-0.7s-0.3,0-0.4,0c-3.9,0-6.9,2.7-7.6,6.8l-0.6,3.1c-0.7,3.4-1.3,7.1-1.9,10.6
		c-0.8,5-3.3,8.6-7.9,11c-3.8,1.9-7.8,4.1-12.2,6.4c-4.5,2.5-5.8,6.3-3.5,11c2,4.3,3.9,8.2,5.9,12c2.4,4.8,2.4,9.4,0,14.2
		c-1.8,3.5-3.5,7.1-5.2,10.6l-0.4,1c-2.4,5.2-1.3,8.7,3.8,11.5c3.7,2,7.6,4.1,12,6.3c4.3,2.3,6.9,5.8,7.6,10.6
		c0.7,4.4,1.6,8.9,2.3,13.2l0.1,0.8c0.8,4.2,3.7,6.6,7.6,6.6c0.4,0,1,0,1.6-0.1c1.7-0.2,3.2-0.4,4.9-0.7c3-0.4,6-0.9,9-1.3
		C74,165.7,74.8,165.6,75.7,165.6z"/>
</g>
<g>
	<path class="st0" d="M67.6,137.3c-1.4-0.1-2.5-0.8-3.1-1.7c-0.4-0.9-0.4-1.8,0-2.7c0.3-0.6,0.9-1.1,1.4-1.7
		c13.4-13.4,66.9-66.9,66.9-66.9c1.1-1.1,2.3-1.8,3.4-1.8c0.9,0,1.7,0.4,2.2,1.3c0.6,1,1,2.3-0.9,4.2c-4.1,4.1-8.2,8.2-12.3,12.3
		l-15.8,15.8c-12.7,12.8-26,26-39.1,39c-0.8,0.8-1.8,1.3-2.5,1.8C67.7,137.2,67.6,137.3,67.6,137.3z"/>
</g>
<g>
	<path class="st0" d="M80.6,89c-9.3,0-16.8-7.6-16.8-16.9c0-9.2,7.6-16.7,16.9-16.7h0.1c9.3,0,16.8,7.6,16.8,16.8
		C97.5,81.5,90,89,80.6,89L80.6,89z M80.6,61.4c-6,0-10.7,4.8-10.7,10.7c0,2.9,1.1,5.6,3.2,7.8s4.8,3.2,7.6,3.2h0.1
		c5.9-0.1,10.7-5,10.7-10.9c0-2.9-1.1-5.6-3.1-7.6C86.3,62.6,83.6,61.4,80.6,61.4L80.6,61.4L80.6,61.4z"/>
</g>
<g>
	<path class="st0" d="M122.2,144.6c-9.3-0.1-16.7-7.6-16.7-16.8c0-9.3,7.6-16.8,16.9-16.8c4.5,0,8.7,1.8,12,5
		c3.2,3.2,4.9,7.4,4.9,12c0,9.2-7.6,16.7-16.9,16.7L122.2,144.6z M122.3,117c-5.9,0-10.7,4.9-10.9,10.7c-0.1,6,4.7,10.9,10.6,11h0.2
		c6.1,0,10.9-4.7,10.9-10.7c0-2.9-1.1-5.6-3.2-7.8C128,118.1,125.2,117,122.3,117L122.3,117z"/>
</g>
</svg>
